<svg xmlns="http://www.w3.org/2000/svg" viewBox="0 0 32 32">
  <defs>
    <linearGradient id="g" x1="0" y1="0" x2="1" y2="1">
      <stop offset="0%" stop-color="#38bdf8"/>
      <stop offset="50%" stop-color="#818cf8"/>
      <stop offset="100%" stop-color="#f472b6"/>
    </linearGradient>
  </defs>
  <rect width="32" height="32" rx="6" fill="url(#g)"/>
  <path d="M16 6C12.13 6 9 9.13 9 13c0 2.39 1.19 4.5 3 5.74V21a1 1 0 001 1h6a1 1 0 001-1v-2.26c1.81-1.24 3-3.35 3-5.74 0-3.87-3.13-7-7-7zm2 13h-4v-1h4v1zm1.1-3.27l-.6.41V18h-5v-1.86l-.6-.41A5 5 0 0111 13a5 5 0 0110 0 5 5 0 01-1.9 3.73z" fill="white" fill-opacity="0.95"/>
</svg>
